<svg id="visual" viewBox="0 0 900 600" width="900" height="600" xmlns="http://www.w3.org/2000/svg" xmlns:xlink="http://www.w3.org/1999/xlink" version="1.1"><rect x="0" y="0" width="900" height="600" fill="#c6bbcd"></rect><path d="M218 600L534 600L534 574L219 574L219 548L353 548L353 522L261 522L261 496L545 496L545 470L49 470L49 443L335 443L335 417L245 417L245 391L626 391L626 365L265 365L265 339L293 339L293 313L244 313L244 287L504 287L504 261L510 261L510 235L93 235L93 209L684 209L684 183L130 183L130 157L136 157L136 130L46 130L46 104L460 104L460 78L722 78L722 52L645 52L645 26L66 26L66 0L900 0L900 26L900 26L900 52L900 52L900 78L900 78L900 104L900 104L900 130L900 130L900 157L900 157L900 183L900 183L900 209L900 209L900 235L900 235L900 261L900 261L900 287L900 287L900 313L900 313L900 339L900 339L900 365L900 365L900 391L900 391L900 417L900 417L900 443L900 443L900 470L900 470L900 496L900 496L900 522L900 522L900 548L900 548L900 574L900 574L900 600L900 600Z" fill="#377ab1"></path><path d="M512 600L773 600L773 574L411 574L411 548L513 548L513 522L472 522L472 496L516 496L516 470L540 470L540 443L221 443L221 417L620 417L620 391L331 391L331 365L746 365L746 339L410 339L410 313L175 313L175 287L533 287L533 261L518 261L518 235L348 235L348 209L180 209L180 183L231 183L231 157L569 157L569 130L608 130L608 104L632 104L632 78L401 78L401 52L477 52L477 26L246 26L246 0L900 0L900 26L900 26L900 52L900 52L900 78L900 78L900 104L900 104L900 130L900 130L900 157L900 157L900 183L900 183L900 209L900 209L900 235L900 235L900 261L900 261L900 287L900 287L900 313L900 313L900 339L900 339L900 365L900 365L900 391L900 391L900 417L900 417L900 443L900 443L900 470L900 470L900 496L900 496L900 522L900 522L900 548L900 548L900 574L900 574L900 600L900 600Z" fill="#6e8cbe"></path><path d="M601 600L324 600L324 574L443 574L443 548L786 548L786 522L387 522L387 496L596 496L596 470L413 470L413 443L657 443L657 417L744 417L744 391L264 391L264 365L475 365L475 339L578 339L578 313L375 313L375 287L791 287L791 261L783 261L783 235L778 235L778 209L539 209L539 183L521 183L521 157L456 157L456 130L560 130L560 104L568 104L568 78L347 78L347 52L554 52L554 26L592 26L592 0L900 0L900 26L900 26L900 52L900 52L900 78L900 78L900 104L900 104L900 130L900 130L900 157L900 157L900 183L900 183L900 209L900 209L900 235L900 235L900 261L900 261L900 287L900 287L900 313L900 313L900 339L900 339L900 365L900 365L900 391L900 391L900 417L900 417L900 443L900 443L900 470L900 470L900 496L900 496L900 522L900 522L900 548L900 548L900 574L900 574L900 600L900 600Z" fill="#96a0ca"></path><path d="M671 600L395 600L395 574L713 574L713 548L556 548L556 522L593 522L593 496L771 496L771 470L709 470L709 443L594 443L594 417L758 417L758 391L759 391L759 365L389 365L389 339L708 339L708 313L518 313L518 287L575 287L575 261L729 261L729 235L740 235L740 209L841 209L841 183L536 183L536 157L519 157L519 130L733 130L733 104L568 104L568 78L572 78L572 52L678 52L678 26L733 26L733 0L900 0L900 26L900 26L900 52L900 52L900 78L900 78L900 104L900 104L900 130L900 130L900 157L900 157L900 183L900 183L900 209L900 209L900 235L900 235L900 261L900 261L900 287L900 287L900 313L900 313L900 339L900 339L900 365L900 365L900 391L900 391L900 417L900 417L900 443L900 443L900 470L900 470L900 496L900 496L900 522L900 522L900 548L900 548L900 574L900 574L900 600L900 600Z" fill="#b7b5d6"></path><path d="M659 600L691 600L691 574L613 574L613 548L684 548L684 522L752 522L752 496L651 496L651 470L855 470L855 443L718 443L718 417L706 417L706 391L736 391L736 365L746 365L746 339L718 339L718 313L708 313L708 287L587 287L587 261L748 261L748 235L733 235L733 209L856 209L856 183L858 183L858 157L749 157L749 130L780 130L780 104L604 104L604 78L548 78L548 52L677 52L677 26L774 26L774 0L900 0L900 26L900 26L900 52L900 52L900 78L900 78L900 104L900 104L900 130L900 130L900 157L900 157L900 183L900 183L900 209L900 209L900 235L900 235L900 261L900 261L900 287L900 287L900 313L900 313L900 339L900 339L900 365L900 365L900 391L900 391L900 417L900 417L900 443L900 443L900 470L900 470L900 496L900 496L900 522L900 522L900 548L900 548L900 574L900 574L900 600L900 600Z" fill="#d3cbe2"></path><path d="M821 600L872 600L872 574L851 574L851 548L716 548L716 522L882 522L882 496L783 496L783 470L853 470L853 443L764 443L764 417L887 417L887 391L689 391L689 365L792 365L792 339L737 339L737 313L701 313L701 287L821 287L821 261L789 261L789 235L859 235L859 209L845 209L845 183L898 183L898 157L738 157L738 130L647 130L647 104L685 104L685 78L644 78L644 52L822 52L822 26L877 26L877 0L900 0L900 26L900 26L900 52L900 52L900 78L900 78L900 104L900 104L900 130L900 130L900 157L900 157L900 183L900 183L900 209L900 209L900 235L900 235L900 261L900 261L900 287L900 287L900 313L900 313L900 339L900 339L900 365L900 365L900 391L900 391L900 417L900 417L900 443L900 443L900 470L900 470L900 496L900 496L900 522L900 522L900 548L900 548L900 574L900 574L900 600L900 600Z" fill="#ebe4ef"></path></svg>