<svg xmlns="http://www.w3.org/2000/svg" version="1.1" xmlns:xlink="http://www.w3.org/1999/xlink" xmlns:svgjs="http://svgjs.dev/svgjs" width="1440" height="560" preserveAspectRatio="none" viewBox="0 0 1440 560"><g mask="url(&quot;#SvgjsMask1478&quot;)" fill="none"><rect width="1440" height="560" x="0" y="0" fill="rgba(203, 210, 216, 1)"></rect><path d="M508 155L869 -206" stroke-width="6" stroke="url(&quot;#SvgjsLinearGradient1479&quot;)" stroke-linecap="round" class="BottomLeft"></path><path d="M706 442L965 183" stroke-width="10" stroke="url(&quot;#SvgjsLinearGradient1480&quot;)" stroke-linecap="round" class="TopRight"></path><path d="M699 469L914 254" stroke-width="6" stroke="url(&quot;#SvgjsLinearGradient1479&quot;)" stroke-linecap="round" class="BottomLeft"></path><path d="M496 282L791 -13" stroke-width="10" stroke="url(&quot;#SvgjsLinearGradient1479&quot;)" stroke-linecap="round" class="BottomLeft"></path><path d="M1178 205L909 474" stroke-width="8" stroke="url(&quot;#SvgjsLinearGradient1480&quot;)" stroke-linecap="round" class="TopRight"></path><path d="M267 20L520 -233" stroke-width="6" stroke="url(&quot;#SvgjsLinearGradient1479&quot;)" stroke-linecap="round" class="BottomLeft"></path><path d="M806 158L1121 -157" stroke-width="8" stroke="url(&quot;#SvgjsLinearGradient1480&quot;)" stroke-linecap="round" class="TopRight"></path><path d="M380 533L154 759" stroke-width="6" stroke="url(&quot;#SvgjsLinearGradient1480&quot;)" stroke-linecap="round" class="TopRight"></path><path d="M227 542L644 125" stroke-width="6" stroke="url(&quot;#SvgjsLinearGradient1480&quot;)" stroke-linecap="round" class="TopRight"></path><path d="M633 265L420 478" stroke-width="10" stroke="url(&quot;#SvgjsLinearGradient1480&quot;)" stroke-linecap="round" class="TopRight"></path><path d="M280 455L556 179" stroke-width="8" stroke="url(&quot;#SvgjsLinearGradient1479&quot;)" stroke-linecap="round" class="BottomLeft"></path><path d="M1403 138L1719 -178" stroke-width="8" stroke="url(&quot;#SvgjsLinearGradient1479&quot;)" stroke-linecap="round" class="BottomLeft"></path><path d="M1180 153L853 480" stroke-width="8" stroke="url(&quot;#SvgjsLinearGradient1480&quot;)" stroke-linecap="round" class="TopRight"></path><path d="M88 286L508 -134" stroke-width="6" stroke="url(&quot;#SvgjsLinearGradient1479&quot;)" stroke-linecap="round" class="BottomLeft"></path><path d="M898 490L1081 307" stroke-width="8" stroke="url(&quot;#SvgjsLinearGradient1479&quot;)" stroke-linecap="round" class="BottomLeft"></path><path d="M555 296L347 504" stroke-width="6" stroke="url(&quot;#SvgjsLinearGradient1479&quot;)" stroke-linecap="round" class="BottomLeft"></path><path d="M767 38L985 -180" stroke-width="10" stroke="url(&quot;#SvgjsLinearGradient1480&quot;)" stroke-linecap="round" class="TopRight"></path><path d="M506 29L329 206" stroke-width="6" stroke="url(&quot;#SvgjsLinearGradient1479&quot;)" stroke-linecap="round" class="BottomLeft"></path><path d="M646 547L834 359" stroke-width="10" stroke="url(&quot;#SvgjsLinearGradient1479&quot;)" stroke-linecap="round" class="BottomLeft"></path><path d="M1074 398L1369 103" stroke-width="8" stroke="url(&quot;#SvgjsLinearGradient1479&quot;)" stroke-linecap="round" class="BottomLeft"></path><path d="M554 445L256 743" stroke-width="6" stroke="url(&quot;#SvgjsLinearGradient1479&quot;)" stroke-linecap="round" class="BottomLeft"></path><path d="M384 536L634 286" stroke-width="8" stroke="url(&quot;#SvgjsLinearGradient1480&quot;)" stroke-linecap="round" class="TopRight"></path><path d="M480 377L339 518" stroke-width="6" stroke="url(&quot;#SvgjsLinearGradient1479&quot;)" stroke-linecap="round" class="BottomLeft"></path><path d="M863 347L1187 23" stroke-width="10" stroke="url(&quot;#SvgjsLinearGradient1480&quot;)" stroke-linecap="round" class="TopRight"></path><path d="M1217 343L909 651" stroke-width="8" stroke="url(&quot;#SvgjsLinearGradient1480&quot;)" stroke-linecap="round" class="TopRight"></path><path d="M429 98L37 490" stroke-width="8" stroke="url(&quot;#SvgjsLinearGradient1479&quot;)" stroke-linecap="round" class="BottomLeft"></path><path d="M1332 85L957 460" stroke-width="8" stroke="url(&quot;#SvgjsLinearGradient1479&quot;)" stroke-linecap="round" class="BottomLeft"></path><path d="M1275 428L1130 573" stroke-width="8" stroke="url(&quot;#SvgjsLinearGradient1479&quot;)" stroke-linecap="round" class="BottomLeft"></path><path d="M648 476L907 217" stroke-width="8" stroke="url(&quot;#SvgjsLinearGradient1480&quot;)" stroke-linecap="round" class="TopRight"></path><path d="M1356 88L1642 -198" stroke-width="10" stroke="url(&quot;#SvgjsLinearGradient1479&quot;)" stroke-linecap="round" class="BottomLeft"></path><path d="M1126 333L916 543" stroke-width="6" stroke="url(&quot;#SvgjsLinearGradient1479&quot;)" stroke-linecap="round" class="BottomLeft"></path><path d="M659 530L820 369" stroke-width="10" stroke="url(&quot;#SvgjsLinearGradient1479&quot;)" stroke-linecap="round" class="BottomLeft"></path><path d="M1253 276L1579 -50" stroke-width="10" stroke="url(&quot;#SvgjsLinearGradient1479&quot;)" stroke-linecap="round" class="BottomLeft"></path><path d="M241 512L608 145" stroke-width="8" stroke="url(&quot;#SvgjsLinearGradient1480&quot;)" stroke-linecap="round" class="TopRight"></path><path d="M1062 536L823 775" stroke-width="6" stroke="url(&quot;#SvgjsLinearGradient1479&quot;)" stroke-linecap="round" class="BottomLeft"></path><path d="M644 268L1038 -126" stroke-width="6" stroke="url(&quot;#SvgjsLinearGradient1479&quot;)" stroke-linecap="round" class="BottomLeft"></path><path d="M926 109L592 443" stroke-width="6" stroke="url(&quot;#SvgjsLinearGradient1479&quot;)" stroke-linecap="round" class="BottomLeft"></path><path d="M1066 176L1392 -150" stroke-width="10" stroke="url(&quot;#SvgjsLinearGradient1480&quot;)" stroke-linecap="round" class="TopRight"></path><path d="M455 493L273 675" stroke-width="6" stroke="url(&quot;#SvgjsLinearGradient1480&quot;)" stroke-linecap="round" class="TopRight"></path></g><defs><mask id="SvgjsMask1478"><rect width="1440" height="560" fill="#ffffff"></rect></mask><linearGradient x1="100%" y1="0%" x2="0%" y2="100%" id="SvgjsLinearGradient1479"><stop stop-color="rgba(166, 171, 177, 0)" offset="0"></stop><stop stop-color="rgba(166, 171, 177, 1)" offset="1"></stop></linearGradient><linearGradient x1="0%" y1="100%" x2="100%" y2="0%" id="SvgjsLinearGradient1480"><stop stop-color="rgba(166, 171, 177, 0)" offset="0"></stop><stop stop-color="rgba(166, 171, 177, 1)" offset="1"></stop></linearGradient></defs></svg>