<svg id="visual" viewBox="0 0 900 600" width="900" height="600" xmlns="http://www.w3.org/2000/svg" xmlns:xlink="http://www.w3.org/1999/xlink" version="1.1"><path d="M0 169L82 181L164 199L245 229L327 211L409 187L491 139L573 223L655 175L736 211L818 169L900 85L900 0L818 0L736 0L655 0L573 0L491 0L409 0L327 0L245 0L164 0L82 0L0 0Z" fill="#c9c9c9"></path><path d="M0 385L82 337L164 415L245 355L327 403L409 307L491 325L573 325L655 277L736 283L818 295L900 289L900 83L818 167L736 209L655 173L573 221L491 137L409 185L327 209L245 227L164 197L82 179L0 167Z" fill="#dadcdc"></path><path d="M0 451L82 409L164 493L245 397L327 481L409 403L491 367L573 397L655 397L736 415L818 421L900 397L900 287L818 293L736 281L655 275L573 323L491 323L409 305L327 401L245 353L164 413L82 335L0 383Z" fill="#e5e7e7"></path><path d="M0 487L82 469L164 547L245 499L327 535L409 481L491 433L573 475L655 451L736 457L818 469L900 493L900 395L818 419L736 413L655 395L573 395L491 365L409 401L327 479L245 395L164 491L82 407L0 449Z" fill="#dadcdc"></path><path d="M0 601L82 601L164 601L245 601L327 601L409 601L491 601L573 601L655 601L736 601L818 601L900 601L900 491L818 467L736 455L655 449L573 473L491 431L409 479L327 533L245 497L164 545L82 467L0 485Z" fill="#c9c9c9"></path></svg>