<!--?xml version="1.0" standalone="no"?-->
              <svg id="sw-js-blob-svg" viewBox="0 0 100 100" xmlns="http://www.w3.org/2000/svg" version="1.1">
                    <defs> 
                        <linearGradient id="sw-gradient" x1="0" x2="1" y1="1" y2="0">
                            <stop id="stop1" stop-color="rgba(248, 117, 55, 1)" offset="0%"></stop>
                            <stop id="stop2" stop-color="rgba(251, 168, 31, 1)" offset="100%"></stop>
                        </linearGradient>
                    </defs>
                <path fill="url(#sw-gradient)" d="M20.5,-36.7C24.8,-32.9,25.5,-24,29.1,-17C32.8,-10,39.5,-5,42.1,1.5C44.8,8.1,43.3,16.1,37.7,19.8C32.1,23.4,22.4,22.7,15.4,23.5C8.5,24.3,4.2,26.5,-0.5,27.4C-5.2,28.3,-10.5,27.8,-13.8,24.9C-17.1,22,-18.4,16.7,-23.7,12.2C-28.9,7.6,-38,3.8,-40.5,-1.4C-43,-6.7,-38.8,-13.4,-34.3,-19.1C-29.8,-24.9,-24.9,-29.8,-19.1,-32.8C-13.4,-35.7,-6.7,-36.8,0.7,-38C8.1,-39.2,16.1,-40.5,20.5,-36.7Z" width="100%" height="100%" transform="translate(50 50)" stroke-width="0" style="transition: all 0.3s ease 0s;"></path>
              </svg>